<svg xmlns="http://www.w3.org/2000/svg" width="363.614" height="70" viewBox="0 0 363.614 70">
  <defs>
    <style>
      .cls-1 {
        fill: #f9fc87;
      }

      .cls-2, .cls-3 {
        fill: #221f28;
      }

      .cls-2 {
        font-size: 30px;
        font-family: Montserrat-SemiBold, Montserrat;
        font-weight: 600;
        letter-spacing: -0.002em;
      }

      .cls-4, .cls-5 {
        stroke: none;
      }

      .cls-5 {
        fill: #707070;
      }
    </style>
  </defs>
  <g id="CV_btn" transform="translate(-725 -842)">
    <g id="Path_65" data-name="Path 65" class="cls-1" transform="translate(725 842)">
      <path class="cls-4" d="M 327.9656066894531 69.5 L 35.64846038818359 69.5 C 30.90209770202637 69.5 26.29805183410645 68.58745574951172 21.9642333984375 66.78777313232422 C 17.77859687805176 65.04959106445312 14.01955223083496 62.56127166748047 10.79150676727295 59.3919563293457 C 7.564097881317139 56.22327423095703 5.030324935913086 52.5336799621582 3.260643243789673 48.42577362060547 C 1.4288250207901 44.17363739013672 0.5000068545341492 39.65654373168945 0.5000068545341492 35 C 0.5000068545341492 30.34345436096191 1.4288250207901 25.82636451721191 3.260643243789673 21.57422637939453 C 5.030324935913086 17.46631813049316 7.564097881317139 13.7767276763916 10.79150676727295 10.60804557800293 C 14.01955223083496 7.438727378845215 17.77859687805176 4.950408935546875 21.9642333984375 3.212227344512939 C 26.29805183410645 1.412545442581177 30.90209770202637 0.5 35.64846038818359 0.5 L 327.9656066894531 0.5 C 332.0511779785156 0.5 335.9746398925781 1.174136400222778 339.9601440429688 2.560863733291626 C 343.2737426757812 3.712636470794678 346.3906860351562 5.368045330047607 349.2244567871094 7.481091022491455 C 352.0310974121094 9.573908805847168 354.4981994628906 12.06881809234619 356.5571899414062 14.89663600921631 C 358.6452331542969 17.76427268981934 360.2674560546875 20.91227340698242 361.3788757324219 24.25318145751953 C 362.5302429199219 27.71413612365723 363.114013671875 31.32986450195312 363.114013671875 35 C 363.114013671875 39.65654373168945 362.1851806640625 44.17363739013672 360.3533630371094 48.42577362060547 C 358.5836791992188 52.5336799621582 356.0499267578125 56.22327423095703 352.822509765625 59.3919563293457 C 349.5945129394531 62.56127166748047 345.83544921875 65.04959106445312 341.6497802734375 66.78777313232422 C 337.3159484863281 68.58745574951172 332.7119750976562 69.5 327.9656066894531 69.5 Z"/>
      <path class="cls-5" d="M 35.64840698242188 1 C 30.96823120117188 1 26.42868041992188 1.899681091308594 22.15597534179688 3.674003601074219 C 18.02969360351562 5.387542724609375 14.323974609375 7.840545654296875 11.14178466796875 10.96481704711914 C 7.96087646484375 14.08790969848633 5.463775634765625 17.72395324707031 3.719818115234375 21.77209091186523 C 1.91510009765625 25.96136474609375 1 30.411865234375 1 35 C 1 39.588134765625 1.91510009765625 44.03863525390625 3.719818115234375 48.22790908813477 C 5.463775634765625 52.27604675292969 7.96087646484375 55.91209030151367 11.14178466796875 59.03518295288086 C 14.323974609375 62.15945434570312 18.02969360351562 64.61245727539062 22.15597534179688 66.32599639892578 C 26.42868041992188 68.10031890869141 30.96823120117188 69 35.64840698242188 69 L 327.9655456542969 69 C 332.6457824707031 69 337.1852722167969 68.10031890869141 341.4580078125 66.32599639892578 C 345.5843200683594 64.61245727539062 349.2900390625 62.15945434570312 352.4722290039062 59.03518295288086 C 355.6531372070312 55.91209030151367 358.1502380371094 52.27604675292969 359.8941955566406 48.22790908813477 C 361.6989135742188 44.03863525390625 362.614013671875 39.588134765625 362.614013671875 35 C 362.614013671875 31.38359069824219 362.038818359375 27.82095336914062 360.9044494628906 24.4109992980957 C 359.809326171875 21.11899948120117 358.210693359375 18.0169563293457 356.1529541015625 15.19091033935547 C 354.1235656738281 12.40377426147461 351.6919250488281 9.944683074951172 348.9255981445312 7.881954193115234 C 346.1328125 5.799453735351562 343.0612182617188 4.168136596679688 339.7958374023438 3.033088684082031 C 335.8640441894531 1.665046691894531 331.9943237304688 1 327.9655456542969 1 L 35.64840698242188 1 M 35.64840698242188 0 L 327.9655456542969 0 C 332.1394653320312 0 336.1458129882812 0.7042694091796875 340.1244506835938 2.088638305664062 C 353.7034912109375 6.808589935302734 363.614013671875 19.76800155639648 363.614013671875 35 C 363.614013671875 54.3299560546875 347.6536560058594 70 327.9655456542969 70 L 35.64840698242188 70 C 15.96035766601562 70 0 54.3299560546875 0 35 C 0 15.6700439453125 15.96035766601562 0 35.64840698242188 0 Z"/>
    </g>
    <text id="Download_My_CV" data-name="Download My CV" class="cls-2" transform="translate(801 857)"><tspan x="0" y="29">Download My CV</tspan></text>
    <g id="computing-cloud" transform="translate(774 770.667)">
      <g id="Group_12" data-name="Group 12" transform="translate(-37 82.333)">
        <path id="Path_18" data-name="Path 18" class="cls-3" d="M48.387,100.421a18.746,18.746,0,0,0-35.013-5A15,15,0,0,0,15,125.333H47.5a12.471,12.471,0,0,0,.888-24.912ZM30,120.333l-12.5-12.5H25v-10H35v10h7.5Z" transform="translate(0 -85.333)"/>
      </g>
    </g>
  </g>
</svg>
