<svg xmlns="http://www.w3.org/2000/svg" width="40.804" height="40" viewBox="0 0 40.804 40">
  <defs>
    <style>
      .cls-1 {
        fill: #c3c8e6;
      }
    </style>
  </defs>
  <path id="github" class="cls-1" d="M20.4,0a20.521,20.521,0,0,0-6.449,39.962c1.02.188,1.392-.446,1.392-.986,0-.488-.019-2.105-.029-3.817C9.643,36.4,8.444,32.741,8.444,32.741a5.429,5.429,0,0,0-2.265-3C4.325,28.471,6.32,28.5,6.32,28.5a4.285,4.285,0,0,1,3.127,2.113c1.821,3.134,4.777,2.228,5.937,1.7a4.392,4.392,0,0,1,1.3-2.738c-4.529-.518-9.293-2.278-9.293-10.135a7.962,7.962,0,0,1,2.1-5.5,7.421,7.421,0,0,1,.2-5.429s1.711-.551,5.611,2.1a19.22,19.22,0,0,1,10.214,0c3.893-2.656,5.606-2.1,5.606-2.1a7.39,7.39,0,0,1,.2,5.427,7.938,7.938,0,0,1,2.1,5.5c0,7.877-4.772,9.612-9.317,10.12a4.9,4.9,0,0,1,1.385,3.795c0,2.741-.027,4.951-.027,5.627,0,.546.371,1.184,1.4.984A20.523,20.523,0,0,0,20.4,0Z"/>
</svg>
