<svg xmlns="http://www.w3.org/2000/svg" width="39.838" height="40" viewBox="0 0 39.838 40">
  <defs>
    <style>
      .cls-1 {
        fill: #c3c8e6;
      }
    </style>
  </defs>
  <path id="linkedin" class="cls-1" d="M12.45,33.047H7V15.391H12.45Zm.543-23.282a3.19,3.19,0,1,0-3.188,3.2,3.2,3.2,0,0,0,3.188-3.2ZM32.836,23.333c0-4.74-1-8.255-6.512-8.255a5.647,5.647,0,0,0-5.155,2.714h-.005v-2.4H15.873V33.047h5.291V24.28c0-2.3.582-4.52,3.416-4.52,2.8,0,2.886,2.625,2.886,4.666v8.621h5.369Zm7,11.979V4.688A4.683,4.683,0,0,0,35.17,0H4.669A4.683,4.683,0,0,0,0,4.688V35.313A4.683,4.683,0,0,0,4.669,40h30.5A4.683,4.683,0,0,0,39.839,35.313ZM35.17,3.125a1.561,1.561,0,0,1,1.556,1.562V35.313a1.561,1.561,0,0,1-1.556,1.563H4.669a1.561,1.561,0,0,1-1.556-1.563V4.688A1.561,1.561,0,0,1,4.669,3.125Zm0,0" transform="translate(0)"/>
</svg>
