<svg xmlns="http://www.w3.org/2000/svg" width="49.231" height="40" viewBox="0 0 49.231 40">
  <defs>
    <style>
      .cls-1 {
        fill: #c3c8e6;
      }
    </style>
  </defs>
  <path id="twitter" class="cls-1" d="M49.231,52.735a21.043,21.043,0,0,1-5.815,1.594,10.036,10.036,0,0,0,4.44-5.578,20.17,20.17,0,0,1-6.4,2.443A10.092,10.092,0,0,0,24,58.1a10.392,10.392,0,0,0,.234,2.3A28.568,28.568,0,0,1,3.428,49.84a10.1,10.1,0,0,0,3.1,13.489,9.967,9.967,0,0,1-4.56-1.243V62.2a10.139,10.139,0,0,0,8.086,9.917,10.074,10.074,0,0,1-2.646.332A8.923,8.923,0,0,1,5.5,72.274,10.189,10.189,0,0,0,14.929,79.3a20.28,20.28,0,0,1-12.514,4.3A18.9,18.9,0,0,1,0,83.471,28.414,28.414,0,0,0,15.483,88c18.572,0,28.726-15.385,28.726-28.72,0-.446-.015-.877-.037-1.3A20.135,20.135,0,0,0,49.231,52.735Z" transform="translate(0 -48)"/>
</svg>
