<svg xmlns="http://www.w3.org/2000/svg" width="55.467" height="38.836" viewBox="0 0 55.467 38.836">
  <defs>
    <style>
      .cls-1 {
        fill: #c3c8e6;
      }

      .cls-2 {
        fill: #221f28;
      }
    </style>
  </defs>
  <g id="youtube" transform="translate(37 -50)">
    <path id="Path_16" data-name="Path 16" class="cls-1" d="M54.324,6.077a6.949,6.949,0,0,0-4.889-4.889C45.095,0,27.733,0,27.733,0S10.371,0,6.031,1.143A7.091,7.091,0,0,0,1.142,6.077C0,10.417,0,19.418,0,19.418s0,9.046,1.142,13.341a6.951,6.951,0,0,0,4.889,4.889c4.386,1.188,21.7,1.188,21.7,1.188s17.362,0,21.7-1.143A6.949,6.949,0,0,0,54.324,32.8c1.142-4.341,1.142-13.341,1.142-13.341s.046-9.047-1.143-13.387Zm0,0" transform="translate(-37 50)"/>
    <path id="Path_17" data-name="Path 17" class="cls-2" d="M204.969,119.608l14.865-8.562-14.865-8.562Zm0,0" transform="translate(-219.996 -42.087)"/>
  </g>
</svg>
